<?xml version="1.0" encoding="UTF-8"?>
<!-- The Best Svg Icon site in the world: iconSvg.co, Visit us! https://iconsvg.co -->
<svg fill="#000000" width="800px" height="800px" version="1.1" viewBox="144 144 512 512" xmlns="http://www.w3.org/2000/svg">
 <g>
  <path d="m400 180.1c-95.027 0-172.39 77.355-172.39 172.38 0 69.504 41.688 134.62 81.949 183.12 40.262 48.496 80.598 80.844 80.598 80.844 2.7891 2.2344 6.2617 3.4531 9.8398 3.4531 3.5742 0 7.0469-1.2188 9.8398-3.4531 0 0 40.332-32.344 80.598-80.844 40.262-48.496 81.945-113.61 81.945-183.12 0-95.027-77.359-172.38-172.38-172.38zm0 31.488c78.008 0 140.9 62.887 140.9 140.9 0 56.449-36.629 117.16-74.691 163.01-30.18 36.344-55.016 58.164-66.207 67.676-11.195-9.5117-36.031-31.332-66.207-67.68-38.062-45.848-74.691-106.56-74.691-163.01 0-78.008 62.887-140.89 140.9-140.89z"/>
  <path d="m400 258.02c-19.664 0-38.078 6.0742-53.227 16.422h-0.003907c-3.4414 2.3555-5.8086 5.9805-6.582 10.078-0.77344 4.1016 0.11328 8.3398 2.4609 11.785 2.3555 3.4531 5.9883 5.8242 10.094 6.5977 4.1055 0.77344 8.3516-0.11719 11.801-2.4766 10.109-6.9062 22.227-10.918 35.457-10.918 34.969 0 62.977 28.008 62.977 62.977s-28.008 62.977-62.977 62.977-62.977-28.008-62.977-62.977c0-2.3359 0.125-4.625 0.36719-6.8867 0.45703-4.1562-0.75781-8.3242-3.375-11.582-2.6211-3.2617-6.4297-5.3438-10.586-5.793-4.1523-0.44922-8.3086 0.76953-11.562 3.3906-3.25 2.6172-5.332 6.418-5.7812 10.57-0.36719 3.3867-0.55078 6.8242-0.55078 10.301 0 51.984 42.48 94.465 94.465 94.465s94.465-42.48 94.465-94.465-42.48-94.465-94.465-94.465z"/>
 </g>
</svg>